<?xml version="1.0" encoding="UTF-8"?>
<svg width="229px" height="77px" viewBox="0 0 229 77" version="1.1" xmlns="http://www.w3.org/2000/svg" xmlns:xlink="http://www.w3.org/1999/xlink">
    <title>4K logo</title>
    <desc>Created with Sketch.</desc>
    <defs>
        <polygon id="path-1" points="0 76.0217193 228.351746 76.0217193 228.351746 0.150609067 0 0.150609067"></polygon>
    </defs>
    <g id="Desktop" stroke="none" stroke-width="1" fill="none" fill-rule="evenodd" transform="translate(-472.000000, -49.000000)">
        <g id="Hero" transform="translate(0.000000, -160.000000)">
            <g id="4K-logo" transform="translate(472.000000, 209.000000)">
                <polygon id="Fill-1" fill="#FFFFFF" points="94.1911684 25.2188714 94.1911684 27.967702 89.1763168 27.967702 89.1763168 36.6605705 94.0058476 36.6605705 94.0058476 39.3723943 89.1763168 39.3723943 89.1763168 51.2228894 86.2042979 51.2228894 86.2042979 25.2188714"></polygon>
                <g id="Group-21" transform="translate(0.000000, 0.136265)">
                    <path d="M101.821081,27.5718727 L100.929475,27.5718727 C99.5923538,27.5718727 98.9606564,28.2029964 98.9606564,29.5406918 L98.9606564,46.6286531 C98.9606564,47.9660616 99.5923538,48.5974722 100.929475,48.5974722 L101.821081,48.5974722 C103.15849,48.5974722 103.790187,47.9660616 103.790187,46.6286531 L103.790187,29.5406918 C103.790187,28.2029964 103.15849,27.5718727 101.821081,27.5718727 Z M101.932675,51.309296 L100.818168,51.309296 C97.5862411,51.309296 95.9889243,49.7119793 95.9889243,46.4797653 L95.9889243,29.6890059 C95.9889243,26.4570788 97.5862411,24.859762 100.818168,24.859762 L101.932675,24.859762 C105.164602,24.859762 106.761919,26.4570788 106.761919,29.6890059 L106.761919,46.4797653 C106.761919,49.7119793 105.164602,51.309296 101.932675,51.309296 Z" id="Fill-2" fill="#FFFFFF"></path>
                    <path d="M119.42926,46.479794 C119.42926,49.712008 117.831944,51.3093247 114.600303,51.3093247 L113.671404,51.3093247 C110.439764,51.3093247 108.84216,49.712008 108.84216,46.479794 L108.84216,25.0826921 L111.814179,25.0826921 L111.814179,46.6286818 C111.814179,47.9660903 112.44559,48.5975009 113.782711,48.5975009 L114.488709,48.5975009 C115.825831,48.5975009 116.457528,47.9660903 116.457528,46.6286818 L116.457528,25.0826921 L119.42926,25.0826921 L119.42926,46.479794 Z" id="Fill-4" fill="#FFFFFF"></path>
                    <path d="M126.992504,27.794602 L124.540588,27.794602 L124.540588,37.5273902 L126.769602,37.5273902 C128.255325,37.5273902 128.961323,36.8213923 128.961323,35.3356697 L128.961323,29.7634211 C128.961323,28.4260126 128.329625,27.794602 126.992504,27.794602 M131.970348,42.3193404 L131.970348,51.0865093 L128.998329,51.0865093 L128.998329,42.4309346 C128.998329,40.8706246 128.292618,40.1649136 126.732308,40.1649136 L124.540588,40.1649136 L124.540588,51.0865093 L121.568856,51.0865093 L121.568856,25.0824913 L127.104098,25.0824913 C130.335738,25.0824913 131.933055,26.6800949 131.933055,29.9117352 L131.933055,34.7412659 C131.933055,37.0818743 131.115749,38.2333882 129.62974,38.8275051 C131.264637,39.2735948 131.970348,40.3138014 131.970348,42.3193404" id="Fill-6" fill="#FFFFFF"></path>
                    <polygon id="Fill-8" fill="#FFFFFF" points="147.014588 51.0865954 142.148337 38.3074878 142.148337 51.0865954 139.176031 51.0865954 139.176031 25.0825774 142.148337 25.0825774 142.148337 37.6757904 147.274496 25.0825774 150.432122 25.0825774 145.083062 37.8613981 150.283522 51.0865954"></polygon>
                    <mask id="mask-2" fill="white">
                        <use xlink:href="#path-1"></use>
                    </mask>
                    <g id="Clip-11"></g>
                    <polygon id="Fill-10" fill="#FFFFFF" mask="url(#mask-2)" points="152.007006 51.0865954 154.979025 51.0865954 154.979025 25.0825774 152.007006 25.0825774"></polygon>
                    <polygon id="Fill-12" fill="#FFFFFF" mask="url(#mask-2)" points="160.498402 51.0865954 160.498402 27.831408 156.598058 27.831408 156.598058 25.0825774 167.371339 25.0825774 167.371339 27.831408 163.470421 27.831408 163.470421 51.0865954"></polygon>
                    <path d="M179.548097,41.0934974 L179.548097,46.4798513 C179.548097,49.7120653 177.95078,51.3093821 174.718853,51.3093821 L173.752947,51.3093821 C170.52102,51.3093821 168.923703,49.7120653 168.923703,46.4798513 L168.923703,29.689092 C168.923703,26.4571648 170.52102,24.8598481 173.752947,24.8598481 L174.718853,24.8598481 C177.913486,24.8598481 179.473509,26.4198712 179.473509,29.6147915 L179.473509,34.2954344 L176.576078,34.2954344 L176.576078,29.5407779 C176.576078,28.2030825 175.94438,27.5719588 174.607259,27.5719588 L173.864541,27.5719588 C172.526845,27.5719588 171.895435,28.2030825 171.895435,29.5407779 L171.895435,46.6284523 C171.895435,47.9661477 172.526845,48.5975582 173.864541,48.5975582 L174.681559,48.5975582 C176.018681,48.5975582 176.650378,47.9661477 176.650378,46.6284523 L176.650378,41.0934974 L179.548097,41.0934974 Z" id="Fill-13" fill="#FFFFFF" mask="url(#mask-2)"></path>
                    <polygon id="Fill-14" fill="#FFFFFF" mask="url(#mask-2)" points="189.362042 36.4128831 189.362042 25.0824913 192.333774 25.0824913 192.333774 51.0865093 189.362042 51.0865093 189.362042 39.1987205 184.533085 39.1987205 184.533085 51.0865093 181.561066 51.0865093 181.561066 25.0824913 184.533085 25.0824913 184.533085 36.4128831"></polygon>
                    <polygon id="Fill-15" fill="#FFFFFF" mask="url(#mask-2)" points="202.67201 25.0826061 202.67201 27.8314367 197.471551 27.8314367 197.471551 36.4500047 202.48669 36.4500047 202.48669 39.1621154 197.471551 39.1621154 197.471551 48.3372197 202.746598 48.3372197 202.746598 51.0866241 194.499532 51.0866241 194.499532 25.0826061"></polygon>
                    <polygon id="Fill-16" fill="#FFFFFF" mask="url(#mask-2)" points="207.493681 30.7291838 207.493681 51.0866528 204.670263 51.0866528 204.670263 25.0826348 208.756789 25.0826348 213.065929 43.8425001 213.065929 25.0826348 215.889347 25.0826348 215.889347 51.0866528 212.174037 51.0866528"></polygon>
                    <path d="M228.351746,42.6909001 L228.351746,46.4799374 C228.351746,49.7121514 226.755003,51.3091813 223.522502,51.3091813 L222.705483,51.3091813 C219.51085,51.3091813 217.95054,49.7121514 217.95054,46.5542379 L217.95054,41.0935834 L220.847972,41.0935834 L220.847972,46.665832 C220.847972,48.0029536 221.479669,48.6346511 222.817078,48.6346511 L223.410908,48.6346511 C224.748603,48.6346511 225.380014,48.0029536 225.380014,46.665832 L225.380014,42.7649137 C225.380014,41.4650858 224.934211,40.9079757 224.079899,40.2762782 L220.439176,37.6387549 C218.507363,36.2643396 217.95054,34.926931 217.95054,32.8092241 L217.95054,29.6888911 C217.95054,26.456964 219.547857,24.8599342 222.779784,24.8599342 L223.522502,24.8599342 C226.717422,24.8599342 228.277445,26.456964 228.277445,29.6145907 L228.277445,34.2955205 L225.380014,34.2955205 L225.380014,29.5032834 C225.380014,28.1658749 224.748603,27.5344643 223.410908,27.5344643 L222.891091,27.5344643 C221.553683,27.5344643 220.922272,28.1658749 220.922272,29.5032834 L220.922272,32.7725042 C220.922272,34.0723322 221.405082,34.6297292 222.259394,35.2614266 L225.86311,37.8616563 C227.757629,39.2360716 228.351746,40.461886 228.351746,42.6909001" id="Fill-17" fill="#FFFFFF" mask="url(#mask-2)"></path>
                    <path d="M75.8712824,38.0862216 C75.8712824,59.0375206 58.8865959,76.0216333 37.9355838,76.0216333 C16.9845717,76.0216333 -0.000114749765,59.0375206 -0.000114749765,38.0862216 C-0.000114749765,17.1346357 16.9845717,0.150523004 37.9355838,0.150523004 C58.8865959,0.150523004 75.8712824,17.1346357 75.8712824,38.0862216" id="Fill-18" fill="#35AA4E" mask="url(#mask-2)"></path>
                    <path d="M47.8912161,27.7780494 L47.8912161,23.210435 C47.8912161,18.5874538 49.0874824,16.1937737 53.8214839,16.1937737 L54.9623835,16.1937737 L54.9623835,12.6577597 L53.1134779,12.6577597 C46.6390093,12.6577597 43.4862595,16.1392676 43.4862595,22.7755334 L43.4862595,26.6362892 C43.4862595,32.2398071 41.9623826,36.1011367 36.3066535,36.1011367 L35.8158114,36.1011367 L35.8158114,40.0143906 L36.3066535,40.0143906 C41.9078764,40.0143906 43.4862595,43.9850193 43.4862595,49.4769431 L43.4862595,53.3947869 C43.4862595,59.9206061 46.5297101,63.5114131 53.1134779,63.5114131 L54.9623835,63.5114131 L54.9623835,59.9762597 L53.8214839,59.9762597 C49.0874824,59.9762597 47.8912161,57.5837271 47.8912161,52.9584509 L47.8912161,48.3928447 C47.8912161,42.9514108 45.6604806,39.6896487 40.9821327,38.1121263 C45.6076957,36.4798109 47.8912161,33.3256268 47.8912161,27.7780494" id="Fill-19" fill="#FFFFFF" mask="url(#mask-2)"></path>
                    <path d="M30.6528465,50.4031745 C30.2933929,50.4031745 29.9987729,50.107407 29.9987729,49.7476664 C29.9987729,49.3844834 30.2933929,49.0904372 30.6528465,49.0904372 C31.0171771,49.0904372 31.3095021,49.3844834 31.3095021,49.7476664 C31.3095021,50.107407 31.0171771,50.4031745 30.6528465,50.4031745 M30.553588,55.9848899 C30.1906919,55.9848899 29.8975062,55.6914174 29.8975062,55.3282344 C29.8975062,54.965912 30.1906919,54.6738739 30.553588,54.6738739 C30.9159104,54.6738739 31.2102435,54.965912 31.2102435,55.3282344 C31.2102435,55.6914174 30.9159104,55.9848899 30.553588,55.9848899 M30.0248785,61.7304107 C29.6616955,61.7304107 29.3693704,61.4377988 29.3693704,61.0757633 C29.3693704,60.7134409 29.6616955,60.4193946 30.0248785,60.4193946 C30.3897827,60.4193946 30.6821077,60.7134409 30.6821077,61.0757633 C30.6821077,61.4377988 30.3897827,61.7304107 30.0248785,61.7304107 M32.4208536,46.7383539 L32.4208536,26.5831314 C32.4208536,18.1200493 31.6287933,12.190929 31.6287933,12.190929 C31.6287933,12.190929 25.9478193,16.1936877 23.4784044,27.3028993 C21.5245027,36.0987556 20.9085834,45.5679063 20.9085834,45.5679063 C20.9085834,45.5679063 28.3148201,45.5145476 28.760336,46.4572169 C29.2009751,47.3984519 28.2955995,50.0267953 28.2955995,53.0759834 C28.2955995,56.1260321 28.6837406,57.547208 28.3503925,58.70991 C28.0184788,59.8763413 27.2206811,60.1726826 27.1853955,60.7077034 C27.1512575,61.2410029 27.2419098,63.9812273 30.0704915,63.9812273 C30.8556668,63.9812273 32.0068938,63.2270345 32.2289346,61.2668216 C32.5921176,58.0584182 32.6956792,51.6786181 32.4208536,46.7383539" id="Fill-20" fill="#FFFFFF" mask="url(#mask-2)"></path>
                </g>
            </g>
        </g>
    </g>
</svg>
