<?xml version="1.0" encoding="UTF-8"?>
<svg width="300px" height="132px" viewBox="0 0 300 132" version="1.1" xmlns="http://www.w3.org/2000/svg" xmlns:xlink="http://www.w3.org/1999/xlink">
    <!-- Generator: Sketch 48.2 (47327) - http://www.bohemiancoding.com/sketch -->
    <title>successful-farming-ag</title>
    <desc>Created with Sketch.</desc>
    <defs></defs>
    <g id="Desktop" stroke="none" stroke-width="1" fill="none" fill-rule="evenodd" transform="translate(-842.000000, -1008.000000)">
        <g id="successful-farming-ag" transform="translate(842.000000, 1008.000000)" fill-rule="nonzero">
            <path d="M16.8,124.5 C16.9,122.4 18.2,121.3 20.3,121.3 C22.3,121.3 23.4,122.2 23.4,124.1 L23.4,130.7 C23.4,131 23.5,131.4 23.5,131.8 L21.4,131.8 C21.4,131.5 21.3,131.2 21.3,131 C20.5,131.7 19.8,132 18.8,132 C17.3,132 16.6,131 16.6,129.7 C16.6,127.4 18.1,126.2 21.2,125 L21.2,124.4 C21.2,123.5 20.9,123.1 20.1,123.1 C19.1,123.1 18.9,123.7 18.9,124.6 L16.8,124.6 L16.8,124.5 Z M21.2,126.6 C19.2,127.7 18.8,128.4 18.8,129.3 C18.8,130 19.1,130.2 19.8,130.2 C20.4,130.2 20.9,129.8 21.2,129.2 L21.2,126.6 Z M24.7,123.3 L24.7,121.5 L25.9,121.5 L25.9,118.7 L28,118.7 L28,121.5 L29.4,121.5 L29.4,123.3 L28,123.3 L28,129.3 C28,129.8 28.2,130.1 28.7,130.1 L29.4,130.1 L29.4,131.9 C29.1,132 28.9,132 28.3,132 C26.7,132 25.8,131.3 25.8,129.7 L25.8,123.3 L24.7,123.3 Z M39.7,124.5 L42.3,124.5 L41,116.3 L40.9,116.3 L39.7,124.5 Z M38.6,131.5 L35.5,131.5 L39,112.5 L43,112.5 L46.5,131.5 L43.4,131.5 L42.8,127.3 L39.2,127.3 L38.6,131.5 Z M52.9,121.9 L58.2,121.9 L58.2,131.5 L56.6,131.5 L56,130.1 C55,131.3 54.2,131.8 52.7,131.8 C50.1,131.8 48.4,130 48.4,126.9 L48.4,117.1 C48.4,114.4 50,112.2 53.2,112.2 C56.4,112.2 58.1,114.6 58.1,117.4 L58.1,118.6 L55,118.6 C55,115.8 54.4,115 53.1,115 C52.3,115 51.7,115.5 51.7,117.1 L51.7,126.9 C51.7,128.1 52.1,128.9 53.2,128.9 C54.5,128.9 55,128.2 55,126.3 L55,124.5 L52.9,124.5 L52.9,121.9 Z M64.2,121.1 L65.4,121.1 C67.2,121.1 67.8,120.4 67.8,118.2 C67.8,115.9 67.1,115.3 65.4,115.3 L64.3,115.3 L64.2,121.1 Z M64.2,131.5 L61,131.5 L61,112.5 L65.6,112.5 C69.2,112.5 71.1,114.1 71.1,118.1 C71.1,121.2 69.9,122.4 68.8,122.9 L71.5,131.5 L68.2,131.5 L65.9,123.6 C65.5,123.7 64.8,123.7 64.2,123.7 L64.2,131.5 Z M74,131.6 L77.3,131.6 L77.3,112.5 L74,112.5 L74,131.6 Z M86.9,118.9 L86.9,117.4 C86.9,115.8 86.2,115.1 85.3,115.1 C84,115.1 83.6,115.8 83.6,117.2 L83.6,126.8 C83.6,128.2 84,128.9 85.3,128.9 C86.5,128.9 86.9,128.2 86.9,127 L86.9,124.7 L90.1,124.7 L90.1,126.9 C90.1,129.6 88.5,131.8 85.3,131.8 C81.9,131.8 80.3,129.6 80.3,126.9 L80.3,117.1 C80.3,114.4 81.9,112.2 85.3,112.2 C88.5,112.2 90.1,114.6 90.1,117.4 L90.1,118.8 L86.9,118.8 L86.9,118.9 Z M93.5,112.5 L96.7,112.5 L96.7,126.9 C96.7,128.3 97.3,129 98.4,129 C99.6,129 100.1,128.3 100.1,126.9 L100.1,112.5 L103.3,112.5 L103.3,126.7 C103.3,130 101.4,131.8 98.3,131.8 C95.2,131.8 93.3,130 93.3,126.7 L93.5,112.5 Z M106.5,131.6 L106.5,112.5 L109.7,112.5 L109.7,128.7 L114.8,128.7 L114.8,131.6 L106.5,131.6 Z M117.2,115.4 L114.1,115.4 L114.1,112.5 L123.6,112.5 L123.6,115.4 L120.5,115.4 L120.5,131.6 L117.2,131.6 L117.2,115.4 Z M125.6,112.6 L128.8,112.6 L128.8,127 C128.8,128.4 129.3,129.1 130.5,129.1 C131.7,129.1 132.2,128.4 132.2,127 L132.2,112.6 L135.4,112.6 L135.4,126.8 C135.4,130.1 133.5,131.9 130.4,131.9 C127.3,131.9 125.4,130.1 125.4,126.8 L125.6,112.6 Z M141.4,121.1 L142.6,121.1 C144.4,121.1 145,120.4 145,118.2 C145,115.9 144.4,115.3 142.6,115.3 L141.4,115.3 L141.4,121.1 Z M141.4,131.6 L138.2,131.6 L138.2,112.6 L142.8,112.6 C146.4,112.6 148.3,114.2 148.3,118.2 C148.3,121.3 147.1,122.5 146,123 L148.7,131.6 L145.4,131.6 L143.1,123.7 C142.7,123.8 142,123.8 141.4,123.8 L141.4,131.6 Z M150.7,131.6 L150.7,112.6 L159.4,112.6 L159.4,115.4 L154,115.4 L154,120.3 L158.2,120.3 L158.2,123.2 L154,123.2 L154,128.7 L159.8,128.7 L159.8,131.6 L150.7,131.6 Z M173.1,118.9 L173.1,117.4 C173.1,115.8 172.4,115.1 171.5,115.1 C170.2,115.1 169.8,115.8 169.8,117.2 L169.8,126.8 C169.8,128.2 170.2,128.9 171.5,128.9 C172.7,128.9 173.1,128.2 173.1,127 L173.1,124.7 L176.3,124.7 L176.3,126.9 C176.3,129.6 174.7,131.8 171.5,131.8 C168.1,131.8 166.5,129.6 166.5,126.9 L166.5,117.1 C166.5,114.4 168.1,112.2 171.5,112.2 C174.7,112.2 176.3,114.6 176.3,117.4 L176.3,118.8 L173.1,118.8 L173.1,118.9 Z M182.3,126.9 C182.3,128.3 182.7,129 184,129 C185.3,129 185.7,128.3 185.7,126.9 L185.7,117.3 C185.7,115.9 185.3,115.2 184,115.2 C182.7,115.2 182.3,115.9 182.3,117.3 L182.3,126.9 Z M179.1,117.2 C179.1,114.5 180.7,112.3 184.1,112.3 C187.5,112.3 189.1,114.5 189.1,117.2 L189.1,127 C189.1,129.7 187.5,131.9 184.1,131.9 C180.7,131.9 179.1,129.7 179.1,127 L179.1,117.2 Z M204.7,112.6 L204.7,131.6 L201.8,131.6 L201.9,116.8 L201.8,116.8 L198.9,131.6 L197.3,131.6 L194.4,116.7 L194.3,116.7 L194.3,131.6 L191.5,131.6 L191.5,112.6 L195.8,112.6 L198,123.7 L198.1,123.7 L200.4,112.6 L204.7,112.6 Z M206.9,113 L206.9,112.2 L210.2,112.2 L210.2,113 L209,113 L209,115.6 L208,115.6 L208,113 L206.9,113 Z M210.6,115.6 L210.6,112.2 L212.1,112.2 L212.6,114.1 L213.1,112.2 L214.5,112.2 L214.5,115.6 L213.6,115.6 L213.6,113.2 L213,115.6 L212.2,115.6 L211.6,113.2 L211.6,115.6 L210.6,115.6 Z M161.6,128.5 L164.7,128.5 L164.7,131.6 L161.6,131.6 L161.6,128.5 Z" id="Shape" fill="#000000"></path>
            <path d="M298.2,74.7 L298.2,74.1 L298.6,74.1 C298.7,74.1 298.7,74.2 298.7,74.2 L298.7,74.6 L299.1,74.6 L299.1,74.2 C299.1,74 299,73.9 298.9,73.8 C298.8,73.8 298.8,73.7 298.7,73.7 C298.8,73.7 298.9,73.6 299,73.6 C299.1,73.5 299.1,73.4 299.1,73.3 C299.1,73.1 299,73 298.9,72.9 C298.8,72.9 298.7,72.8 298.6,72.8 L297.7,72.8 L297.7,74.5 L298.2,74.5 L298.2,74.7 Z M298.7,73.5 C298.7,73.6 298.7,73.7 298.6,73.7 C298.5,73.7 298.5,73.8 298.4,73.8 L298.2,73.8 L298.2,73.3 L298.6,73.3 C298.7,73.4 298.7,73.4 298.7,73.5 Z M300,73.8 C300,73.4 299.8,73 299.5,72.7 C299.2,72.4 298.8,72.3 298.4,72.3 C298,72.3 297.6,72.4 297.3,72.7 C297,73 296.8,73.4 296.8,73.8 C296.8,74.2 296.9,74.6 297.2,74.9 C297.5,75.2 297.9,75.3 298.3,75.3 C298.7,75.3 299.1,75.2 299.4,74.9 C299.8,74.6 300,74.3 300,73.8 Z M298.5,72.6 C298.8,72.6 299.1,72.7 299.4,73 C299.6,73.3 299.8,73.5 299.8,73.9 C299.8,74.3 299.7,74.6 299.4,74.8 C299.2,75.1 298.9,75.2 298.5,75.2 C298.1,75.2 297.9,75.1 297.6,74.8 C297.4,74.6 297.2,74.2 297.2,73.9 C297.2,73.6 297.3,73.3 297.6,73 C297.8,72.7 298.1,72.6 298.5,72.6 Z M98.4,102 L97.8,102 L97.8,93.1 L101.6,93.1 L101.6,70.1 L97.8,70.1 L97.8,61.2 L112.5,61.2 L112.5,65.6 L113.5,64.3 C115.7,61.5 118.3,60.3 121.8,60.3 C123.1,60.3 124.3,60.4 126.4,60.8 L126.9,60.9 L126.9,71.4 L126.2,71.3 C124.5,70.9 123.1,70.8 121.5,70.8 C116.6,70.8 112.5,74.3 112.5,78.4 L112.5,93.2 L117.2,93.2 L117.2,102.1 L98.4,102.1 L98.4,102 Z M16.7,101.4 L16.7,92.3 L21,92.3 L21,58.4 L16.6,58.4 L16.6,48.7 L57.9,48.7 L57.9,66 L48,66 L48,58.4 L32.9,58.4 L32.9,69.7 L49.1,69.7 L49.1,79.3 L32.9,79.3 L32.9,92.3 L38.6,92.3 L38.6,102 L16.7,102 L16.7,101.4 Z M194.8,48.7 L206.6,48.7 L206.6,59.2 L194.8,59.2 L194.8,48.7 Z M154,101.4 L154,75.2 C154,70.5 152.1,69.9 150.4,69.9 C146.5,69.9 143.1,74.9 143.1,80.6 L143.1,93.3 L147,93.3 L147,102.2 L128.9,102.2 L128.9,93.3 L132.2,93.3 L132.2,70.3 L128.8,70.3 L128.8,61.4 L143.1,61.4 L143.1,65 L144.1,64.1 C147.3,61.2 149.8,60.2 153.9,60.2 C158.1,60.2 160.7,61.7 163.1,65.3 L163.5,65.9 L164,65.4 C167.5,61.9 171.2,60.2 175.4,60.2 C182.1,60.2 186.7,65.1 186.7,72 L186.7,93.1 L190.4,93.1 L190.4,102 L175.8,102 L175.8,74.8 C175.8,71.7 174.4,69.8 172.2,69.8 C168.5,69.8 164.9,74.7 164.9,79.9 L164.9,93.1 L168.8,93.1 L168.8,102 L154.1,102 L154,101.4 Z" id="Shape" fill="#EA2127"></path>
            <path d="M276.3,115.7 C270.3,115.7 265.6,114.3 262.4,111.5 C259.8,109.3 258.7,107.3 257.5,102.5 L257.3,101.5 L257.1,100.8 L267.6,100.8 L268.1,102.1 C269.3,105.5 271.7,106.9 276.1,106.9 C281.5,106.9 284.9,104.2 284.9,100.1 L284.9,95.4 L283.9,96.3 C281.1,98.9 277.6,100.2 273.5,100.2 C263.9,100.2 256.9,91.8 256.9,80.3 C256.9,68.5 264,60.3 274.1,60.3 C277.5,60.3 280.3,61.4 283.9,64 L284.8,64.7 L284.8,61.1 L299.4,61.1 L299.4,70 L296,70 L296,100 C296,109.9 288.6,115.7 276.3,115.7 Z M277.2,69.8 C271.8,69.8 268.4,73.9 268.4,80.5 C268.4,87.3 271.3,91 276.5,91 C281.6,91 285.1,86.6 285.1,80.2 C285.1,74.2 281.7,69.8 277.2,69.8 Z M192.4,101.4 L192.4,93.2 L196.3,93.2 L196.3,70.1 L192.5,70.1 L192.5,61.3 L207.2,61.3 L207.2,93.2 L209.9,93.2 L210.5,93.1 L210.5,102 L192.4,102 L192.4,101.4 Z M240.7,74.9 C240.7,71.5 238.8,69.6 235.4,69.6 C231.1,69.6 227.1,74.1 227.1,79.1 L227.1,93.2 L230.7,93.2 L230.7,102.1 L212.5,102.1 L212.5,93.2 L216.2,93.2 L216.2,70.2 L212.5,70.2 L212.5,61.3 L227.1,61.3 L227.1,65.4 L228.1,64.5 C231.2,61.6 234.7,60.3 238.7,60.3 C246,60.3 251.6,65.6 251.6,72.7 L251.6,93.2 L255.2,93.2 L255.2,102.1 L240.7,102.1 L240.7,74.9 Z M70.7,102.8 C62.4,102.8 56.1,97.2 56.1,89.9 C56.1,78.7 67.5,76.7 81.3,75.4 L81.9,75.3 L81.9,74.7 C81.7,70 80.3,68.8 75.2,68.8 C71.4,68.8 68.9,70.9 68.7,74.2 L68.7,74.8 L58.5,74.5 L57.9,74.5 L57.9,73.9 C58.4,65.6 65.1,60.3 74.8,60.3 C86.1,60.3 92.3,65.5 92.3,74.9 L92.3,93.2 L95.6,93.2 L95.6,102.1 L82.1,102.1 L82.1,98.3 L81.1,99.1 C77.9,101.8 75,102.8 70.7,102.8 Z M81.1,83.4 C72.9,84.2 67.5,85.1 67.5,89.9 C67.5,92.8 69.8,94.7 73.4,94.7 C78.1,94.7 81.7,91.2 81.7,86.6 L81.7,83.4 L81.1,83.4 Z" id="Shape" fill="#EA2127"></path>
            <path d="M250.5,45.7 L250.5,17.9 L240.4,18.3 L240.4,18.6 C245.4,19 246,19.6 246,21.7 L246,39.9 C243.9,43.9 240.5,46.9 237,46.9 C232.7,46.9 231.1,43.8 231.1,39.1 L231.1,17.9 L221.5,18.3 L212.4,18.3 L212.4,11.2 C212.4,6 213.4,3.4 214.6,2.1 C215.5,1.2 216.5,0.8 218.3,0.8 C219.6,0.8 220.9,1.2 221.7,1.7 C220.6,2.4 219.9,3.6 219.9,5.1 C219.9,6.7 221.2,8.1 223,8.1 C224.4,8.1 225.9,7 225.9,4.9 C225.9,2.4 223,0.2 218.7,0.2 C216.1,0.2 213.7,1.3 211.7,3.3 C209.2,5.8 207.9,9.1 207.9,15.3 L207.9,18.2 L201.9,18.5 L201.9,19 L207.9,19 L207.9,45.6 C207.9,47.9 206.4,48.2 202.5,48.3 L202.5,48.6 L219,48.6 L219,48.3 C213.8,48.3 212.4,47.9 212.4,45.6 L212.4,19 L221.4,19 C226.3,19 226.4,19.6 226.4,21.7 L226.4,40.1 C226.4,44.4 227.9,47.5 230.9,48.7 L237.9,48.7 C241.1,47.4 243.9,44.4 245.9,41.1 L245.9,48.7 L255.8,48.7 L255.8,48.4 C252.1,48.3 250.5,48 250.5,45.7 M190.8,30.3 C184.6,28.4 182.3,26.9 182.3,23.5 C182.3,20 185,17.6 189.1,17.6 C193.3,17.6 195.1,19.3 198.6,26.7 L198.8,26.7 L198.8,17 L198.5,17 L196.6,18.9 C194.5,17.8 192,17 189.3,17 C184.3,17 179.1,21.1 179.1,26.2 C179.1,30.8 182.3,32.6 188.8,34.6 C195.8,36.7 197.1,38.4 197.1,41.9 C197.1,45.8 194.3,48.3 190.1,48.3 C184.7,48.3 183,46.2 179,38 L178.8,38 L178.8,48.8 L179.2,48.8 L181.5,46.5 C183.4,47.5 185.8,48.5 188.5,48.8 L191.1,48.8 C195.8,48.3 200.3,44.6 200.3,39.4 C200.3,34.9 197.5,32.3 190.8,30.3 M59.4,45.7 L59.4,17.9 L49.3,18.3 L49.3,18.6 C54.3,19 54.9,19.6 54.9,21.7 L54.9,39.9 C52.8,43.9 49.4,46.9 45.9,46.9 C41.6,46.9 40,43.8 40,39.1 L40,17.9 L30.4,18.3 L30.4,18.6 C34.9,19.1 35.4,19.6 35.4,21.7 L35.4,40.1 C35.4,44.4 36.9,47.5 39.9,48.7 L46.9,48.7 C50.1,47.4 52.9,44.4 54.9,41.1 L54.9,48.7 L64.8,48.7 L64.8,48.4 C61,48.3 59.4,48 59.4,45.7 M165.8,30.3 C159.6,28.4 157.3,26.9 157.3,23.5 C157.3,20 160,17.6 164.1,17.6 C168.3,17.6 170.1,19.3 173.6,26.7 L173.8,26.7 L173.8,17 L173.5,17 L171.6,18.9 C169.5,17.8 167,17 164.3,17 C159.3,17 154.1,21.1 154.1,26.2 C154.1,30.8 157.3,32.6 163.8,34.6 C170.8,36.7 172.1,38.4 172.1,41.9 C172.1,45.8 169.3,48.3 165.1,48.3 C159.7,48.3 158,46.2 154,38 L153.8,38 L153.8,48.8 L154.2,48.8 L156.5,46.5 C158.4,47.5 160.8,48.5 163.5,48.8 L166.1,48.8 C170.8,48.3 175.3,44.6 175.3,39.4 C175.3,34.9 172.5,32.3 165.8,30.3 M266.6,45.7 L266.6,0.6 L256.6,0.9 L256.6,1.2 C261.5,1.6 262,2.2 262,4.3 L262,45.7 C262,47.9 260.7,48.3 256.8,48.4 L256.8,48.7 L271.8,48.7 L271.8,48.4 C267.9,48.3 266.6,47.9 266.6,45.7 M110.2,47.1 C102.8,47.1 98.5,41.4 98.5,33.2 C98.5,23.2 103.3,18.2 108.6,18.2 C112,18.2 113.9,19.2 115,20.3 C114.1,20.8 112.6,21.8 112.6,23.8 C112.6,25.7 114,26.9 115.7,26.9 C117.3,26.9 118.8,25.6 118.8,23.7 C118.8,20.5 114.6,17.6 108.7,17.6 C100.9,17.6 93.6,24.8 93.6,34 C93.6,41.2 97.3,46.9 103.3,48.8 L111.9,48.8 C115.3,47.6 117.7,44.9 119.9,42.2 L119.4,41.9 C116.6,45.3 113.9,47.1 110.2,47.1 M81.1,47.1 C73.7,47.1 69.4,41.4 69.4,33.2 C69.4,23.2 74.2,18.2 79.5,18.2 C82.9,18.2 84.8,19.2 85.9,20.3 C85,20.8 83.5,21.8 83.5,23.8 C83.5,25.7 84.9,26.9 86.6,26.9 C88.2,26.9 89.7,25.6 89.7,23.7 C89.7,20.5 85.5,17.6 79.6,17.6 C71.8,17.6 64.5,24.8 64.5,34 C64.5,41.2 68.2,46.9 74.2,48.8 L82.8,48.8 C86.2,47.6 88.6,44.9 90.8,42.2 L90.3,41.9 C87.5,45.3 84.8,47.1 81.1,47.1 M138.2,47.9 C131.9,47.9 127.7,42.5 127.7,33.7 L127.7,33.6 C127.7,32.8 127.7,32.1 127.8,31.3 L149.5,31.3 C149.9,24 145.3,17.6 137.2,17.6 C129.2,17.6 122.8,25.4 122.8,34.1 C122.8,41.6 126.8,47 132.5,48.8 L141,48.8 C144.6,47.5 147.4,44.7 149.5,41.4 L149,41 C146.3,44.9 142.9,47.9 138.2,47.9 M137,18.2 C142.9,18.2 145,23.4 144.7,30.5 L127.7,30.5 C128.4,22.7 131.8,18.2 137,18.2 M17.3,21.7 C8.2,19 5.3,17 5.3,11.1 C5.3,5 9.1,1.1 15.4,1.1 C21.6,1.1 25.1,3.8 29.1,14.7 L29.3,14.7 L29.3,0 L29,0 L26.7,2.8 C24,1.5 20.1,0.4 15.8,0.4 C8.3,0.4 1.1,5.6 1.1,13.5 C1.1,20.4 5.5,23.7 15.5,26.5 C24.6,29 27.3,31.9 27.3,37.4 C27.3,43.8 24,48.3 16.8,48.3 C8.2,48.4 4,45.9 0.2,32.8 L0,32.8 L0,48.8 L0.7,48.8 L3.2,45.9 C5.9,47.2 9.3,48.3 12.7,48.8 L19.4,48.8 C26.8,47.5 31.4,41.3 31.4,35.1 C31.5,28 26.8,24.5 17.3,21.7" id="Shape" fill="#221F1F"></path>
        </g>
    </g>
</svg>