<?xml version="1.0" encoding="UTF-8"?>
<svg width="30px" height="20px" viewBox="0 0 30 20" version="1.1" xmlns="http://www.w3.org/2000/svg" xmlns:xlink="http://www.w3.org/1999/xlink">
    <defs></defs>
    <g id="Desktop" stroke="none" stroke-width="1" fill="none" fill-rule="evenodd" transform="translate(-104.000000, -1758.000000)">
        <g id="4K" transform="translate(0.000000, 1466.000000)" fill="#FFFFFF" fill-rule="nonzero">
            <g id="Block-Copy" transform="translate(45.000000, 50.000000)">
                <g id="CTA-button" transform="translate(34.000000, 230.000000)">
                    <g id="cardboard" transform="translate(25.000000, 12.000000)">
                        <path d="M27.5203795,0 L1.77002896,0 C0.809594695,0 0,0.839306904 0,1.87438868 L0,17.2937345 C0,18.3288164 0.809594695,19.1679502 1.80840628,19.1679502 L8.84246931,19.1679502 C9.59666716,19.1679502 10.2430748,18.6897546 10.5147195,18.009731 L12.560064,12.8896648 C12.9049593,12.0263185 13.7257336,11.4189322 14.6834981,11.4189322 C15.6412627,11.4189322 16.4620368,12.0263185 16.8069321,12.8896648 L18.8522768,18.009731 C19.1239215,18.6897546 19.7703291,19.1679502 20.4861497,19.1679502 L27.5203795,19.1679502 C28.5574016,19.1679502 29.3669962,18.3288164 29.3669962,17.2937345 L29.3669962,1.87438868 C29.3669962,0.839306904 28.5574016,0 27.5203795,0 Z M8.02302999,12.9571138 C6.22380091,12.9571138 4.76696429,11.4478141 4.76696429,9.5839752 C4.76696429,7.72013619 6.22380091,6.2110094 8.02302999,6.2110094 C9.82209224,6.2110094 11.2759254,7.72013619 11.2759254,9.5839752 C11.2759254,11.4478141 9.81892194,12.9571138 8.02302999,12.9571138 Z M21.3456347,12.9555573 C19.5474068,12.9555573 18.0910708,11.4469493 18.0910708,9.5839752 C18.0910708,7.72117386 19.5474068,6.21256598 21.3456347,6.21256598 C23.1438628,6.21256598 24.6001989,7.72117386 24.6001989,9.5839752 C24.6001989,11.4469493 23.1438628,12.9555573 21.3456347,12.9555573 Z" id="Imported-Layers"></path>
                    </g>
                </g>
            </g>
        </g>
    </g>
</svg>
